<svg xmlns="http://www.w3.org/2000/svg" width="19.768" height="22.357" viewBox="0 0 19.768 22.357">
    <defs>
        <style>
            .cls-1{fill:#fff}
        </style>
    </defs>
    <g id="noun_Login_99166" transform="translate(-4.556 -.024)">
        <path id="Path_321" d="M17.5 37.618a4.271 4.271 0 0 1 2.1-3.686v-.62a12.018 12.018 0 0 0-3.428-1.048c-.026.37-.06.8-.1 1.258a4.345 4.345 0 0 1-5.43 0c-.043-.451-.077-.87-.1-1.236a10.7 10.7 0 0 0-5.965 2.949c-.076 1.59.076 3.71.758 4.619.614.819 1.66 2.375 6.407 2.675a18.815 18.815 0 0 0 3.337 0 11.151 11.151 0 0 0 4.752-1.118 4.267 4.267 0 0 1-2.331-3.793zm-4.142 3.589c-1.6-.3-2.329-4.138-2.651-7.06a5.276 5.276 0 0 0 2.722.819 4.69 4.69 0 0 0 2.578-.8c-.323 2.915-1.048 6.743-2.65 7.041z" class="cls-1" data-name="Path 321" transform="translate(0 -20.227)"/>
        <path id="Path_322" d="M46.916 25.86l-.008-1.9-.563-.061-.023-1.043v-.026l-.191-.25.028-.352.192-.211-.013-.026-.015-.77V21.2l-.446-.427.026-.447.212-.231-.009-.014.012-.012-.211-.272v-.33l.292-.419-.009-.015.008-.012-.148-.251v-.27l.292-.357-.012-.012.012-.015-1.255-1.216-.256.26v-.051l-.134.12-.409.323-.015 7.087-.56.275v.768a3.01 3.01 0 0 0-1.358 2.447 2.842 2.842 0 1 0 4.561-2.276zm-2.431 3.546a.734.734 0 1 1 .736.73.734.734 0 0 1-.735-.73z" class="cls-1" data-name="Path 322" transform="translate(-23.715 -10.591)"/>
        <path id="Path_323" d="M24.558 6.035a.386.386 0 0 0-.192-.129v.007a1.733 1.733 0 0 0 .061-.673 1.375 1.375 0 0 1 .111-.385.912.912 0 0 0 .116-.49 1.041 1.041 0 0 0 0-.213C24.6 1.865 22.431.024 19.761.024c-2.7 0-4.895 1.887-4.895 4.214V4.447l.007.026c.012.192.042.291.092.322A11.357 11.357 0 0 1 15.1 5.93a.347.347 0 0 0-.132.1c-.15.2-.086.645-.086.952a1.022 1.022 0 0 0 .835 1.125c.584 2.234 2.173 3.84 4.047 3.84s3.464-1.606 4.048-3.84a1.022 1.022 0 0 0 .835-1.125c-.003-.302.061-.744-.089-.947z" class="cls-1" data-name="Path 323" transform="translate(-6.469)"/>
    </g>
</svg>
